<?xml version="1.0" encoding="UTF-8" standalone="no"?>
<!DOCTYPE svg PUBLIC "-//W3C//DTD SVG 1.1//EN"
 "http://www.w3.org/Graphics/SVG/1.1/DTD/svg11.dtd">
<!-- Generated by graphviz version 2.38.0 (20140413.2041)
 -->
<!-- Title: G Pages: 1 -->
<svg width="418pt" height="286pt"
 viewBox="0.00 0.00 417.69 286.00" xmlns="http://www.w3.org/2000/svg" xmlns:xlink="http://www.w3.org/1999/xlink">
<g id="graph0" class="graph" transform="scale(1 1) rotate(0) translate(4 282)">
<title>G</title>
<polygon fill="white" stroke="none" points="-4,4 -4,-282 413.69,-282 413.69,4 -4,4"/>
<g id="clust1" class="cluster"><title>cluster_Global</title>
<path fill="none" stroke="gray" d="M191.69,-8C191.69,-8 389.69,-8 389.69,-8 395.69,-8 401.69,-14 401.69,-20 401.69,-20 401.69,-258 401.69,-258 401.69,-264 395.69,-270 389.69,-270 389.69,-270 191.69,-270 191.69,-270 185.69,-270 179.69,-264 179.69,-258 179.69,-258 179.69,-20 179.69,-20 179.69,-14 185.69,-8 191.69,-8"/>
<text text-anchor="middle" x="290.69" y="-257.2" font-family="Times New Roman,serif" font-size="11.00" fill="gray">Global</text>
</g>
<g id="clust2" class="cluster"><title>cluster_\local_autocompgrade</title>
<path fill="none" stroke="gray" d="M229.19,-116C229.19,-116 352.19,-116 352.19,-116 358.19,-116 364.19,-122 364.19,-128 364.19,-128 364.19,-230 364.19,-230 364.19,-236 358.19,-242 352.19,-242 352.19,-242 229.19,-242 229.19,-242 223.19,-242 217.19,-236 217.19,-230 217.19,-230 217.19,-128 217.19,-128 217.19,-122 223.19,-116 229.19,-116"/>
<text text-anchor="middle" x="290.69" y="-229.2" font-family="Times New Roman,serif" font-size="11.00" fill="gray">local_autocompgrade</text>
</g>
<!-- \\local_autocompgrade\\autocompgrade -->
<g id="node1" class="node"><title>\\local_autocompgrade\\autocompgrade</title>
<polygon fill="none" stroke="black" points="342.69,-214 238.69,-214 238.69,-178 342.69,-178 342.69,-214"/>
<text text-anchor="middle" x="290.69" y="-193.2" font-family="Courier,monospace" font-size="11.00">autocompgrade</text>
</g>
<!-- \\local_autocompgrade\\competency_result -->
<g id="node2" class="node"><title>\\local_autocompgrade\\competency_result</title>
<polygon fill="none" stroke="black" points="356.19,-160 225.19,-160 225.19,-124 356.19,-124 356.19,-160"/>
<text text-anchor="middle" x="290.69" y="-139.2" font-family="Courier,monospace" font-size="11.00">competency_result</text>
</g>
<!-- \\consistencycheck_form -->
<g id="node3" class="node"><title>\\consistencycheck_form</title>
<polygon fill="none" stroke="black" points="369.69,-106 211.69,-106 211.69,-70 369.69,-70 369.69,-106"/>
<text text-anchor="middle" x="290.69" y="-85.2" font-family="Courier,monospace" font-size="11.00">consistencycheck_form</text>
</g>
<!-- \\moodleform -->
<g id="node5" class="node"><title>\\moodleform</title>
<ellipse fill="none" stroke="black" cx="57.8449" cy="-61" rx="57.6901" ry="18"/>
<text text-anchor="middle" x="57.8449" y="-57.3" font-family="Times New Roman,serif" font-size="14.00" fill="gray">\moodleform</text>
</g>
<!-- \\consistencycheck_form&#45;&gt;\\moodleform -->
<g id="edge1" class="edge"><title>\\consistencycheck_form&#45;&gt;\\moodleform</title>
<path fill="none" stroke="black" d="M211.536,-78.859C182.413,-75.4527 149.743,-71.6316 122.119,-68.4006"/>
<polygon fill="none" stroke="black" points="122.525,-64.9243 112.186,-67.2389 121.712,-71.8769 122.525,-64.9243"/>
</g>
<!-- \\gradeassigncompetencies_form -->
<g id="node4" class="node"><title>\\gradeassigncompetencies_form</title>
<polygon fill="none" stroke="black" points="393.69,-52 187.69,-52 187.69,-16 393.69,-16 393.69,-52"/>
<text text-anchor="middle" x="290.69" y="-31.2" font-family="Courier,monospace" font-size="11.00">gradeassigncompetencies_form</text>
</g>
<!-- \\gradeassigncompetencies_form&#45;&gt;\\moodleform -->
<g id="edge2" class="edge"><title>\\gradeassigncompetencies_form&#45;&gt;\\moodleform</title>
<path fill="none" stroke="black" d="M187.43,-45.9605C165.248,-48.5549 142.41,-51.2261 122.249,-53.5841"/>
<polygon fill="none" stroke="black" points="121.802,-50.1125 112.276,-54.7506 122.615,-57.0651 121.802,-50.1125"/>
</g>
</g>
</svg>
